<svg width="120" height="48" viewBox="0 0 120 48" fill="none" xmlns="http://www.w3.org/2000/svg">
<path d="M72.1566 14.0378L68.9268 17.2676L72.1566 20.4974L75.3863 17.2676L72.1566 14.0378Z" fill="#E1B600"/>
<path fill-rule="evenodd" clip-rule="evenodd" d="M90.9346 29.1655L88.5009 31.5991L90.9346 34.0327L93.3682 31.5991L90.9346 29.1655ZM74.8496 20.208V34.0327H72.2247V22.8333L74.8496 20.208ZM61.605 22.749L57.145 34.0327H54.253L53.9686 17.2686H56.5357L61.605 22.749ZM70.8422 22.749L66.3823 34.0327H63.4902L63.2059 17.2686H65.7729L70.8422 22.749ZM84.4955 17.2686V24.0884L80.6923 17.2686H77.8159V34.0327H80.4623V22.1032L84.4955 29.336V34.0327H87.0197V17.2686H84.4955ZM52.6706 22.749L47.6014 17.2686H45.1705L41.6411 25.5754L45.0422 34.0327H48.2107L52.6706 22.749ZM112.745 26.4502L114.274 25.8983L113.401 23.479L111.437 24.1881L111.434 24.1852L106.681 25.9012L107.554 28.3194L108.108 28.1202L108.109 28.123L108.981 27.8078L107.077 31.0826L105.501 26.3831L109.096 18.5304L106.758 17.4592L103.911 23.6764L97.7468 25.9012L98.6196 28.3194L100.048 27.804L98.1425 31.0826L96.5664 26.3831L100.161 18.5304L97.8234 17.4592L93.8051 26.2375L96.4198 34.0327H99.4024L103.176 27.5405L105.354 34.0327H108.337L112.745 26.4502ZM46.7586 20.1956L49.6442 23.3152L46.6192 30.9686L44.4612 25.6032L46.7586 20.1956ZM65.8796 21.2217L67.8158 23.3152L65.9933 27.9266L65.8796 21.2217ZM56.6424 21.2217L58.5787 23.3152L56.7561 27.9266L56.6424 21.2217Z" fill="white"/>
<path fill-rule="evenodd" clip-rule="evenodd" d="M19.2923 8.96598C22.4497 8.96598 24.5219 10.5151 25.6912 11.76C27.3616 10.7923 28.4975 9.44637 28.4975 7.85639C28.4975 7.6998 28.4859 7.54514 28.4632 7.39257C28.4611 7.37826 28.4593 7.36387 28.4577 7.34947C28.3819 6.65215 28.0214 5.66175 27.4644 4.63142C27.0771 3.91493 26.6503 3.28926 26.2407 2.81765C25.9026 2.42832 25.8763 1.85763 26.1774 1.43892C26.4783 1.02012 27.0276 0.863117 27.5044 1.05954C32.1944 2.99148 35.1535 6.5539 35.1535 10.4573C35.1535 14.0716 32.9425 17.3623 28.9111 19.3734L29.1204 21.9177C29.1459 22.2273 29.0405 22.5345 28.8299 22.763C28.7467 22.8533 28.65 22.9278 28.5443 22.9856C28.6068 24.3991 28.95 26.7475 30.2891 29.4482C34.1018 37.1378 30.4304 41.8714 30.3473 41.9769C28.8412 43.6507 27.4175 44.0859 27.4175 44.0859C25.8124 44.7228 23.9379 44.2248 22.2959 43.1787C21.9591 44.4098 21.282 45.497 20.4965 46.2711L20.0731 46.6879C19.64 47.1147 18.9447 47.1147 18.5116 46.6879L18.0882 46.2711C17.3026 45.497 16.6256 44.4098 16.2887 43.1787C14.6468 44.2248 12.7722 44.7228 11.1671 44.0859C11.1671 44.0859 9.74343 43.6507 8.23731 41.9769C8.15421 41.8714 4.48282 37.1378 8.29565 29.4482C9.63463 26.7475 9.97785 24.3991 10.0404 22.9856C9.93458 22.9278 9.83791 22.8533 9.75473 22.763C9.54407 22.5345 9.43879 22.2273 9.46423 21.9177L9.67354 19.3734C5.64212 17.3623 3.43115 14.0716 3.43115 10.4573C3.43115 6.55532 6.38798 2.99424 11.0748 1.0618C11.5515 0.865212 12.1008 1.02205 12.4019 1.44051C12.703 1.85905 12.6771 2.42966 12.3393 2.81916C11.935 3.28532 11.5148 3.90171 11.1334 4.60706C10.6462 5.50825 10.3139 6.38107 10.1877 7.05655C10.1842 7.0753 10.1803 7.09404 10.1758 7.11262C10.1176 7.35457 10.0871 7.60289 10.0871 7.85639C10.0871 9.44637 11.223 10.7923 12.8934 11.76C14.0628 10.5151 16.135 8.96598 19.2923 8.96598Z" fill="white"/>
<path fill-rule="evenodd" clip-rule="evenodd" d="M27.0801 2.08789C31.2934 3.82338 34.0405 6.95042 34.0405 10.4569C34.0405 13.8815 31.7588 16.9331 27.7385 18.6938L28.0113 22.0087H27.4285C27.3787 23.1886 27.4674 26.2625 29.2917 29.9422C32.7873 36.9919 29.4646 41.2988 29.4646 41.2988L29.0106 41.9002L26.1253 38.503C26.1297 39.4579 26.345 40.8161 27.2781 42.1435L27.7182 42.7694L27.007 43.0516C25.6871 43.5749 24.1575 43.0658 22.814 42.19C22.2969 41.853 21.8078 41.4668 21.3721 41.0858C21.3974 41.2396 21.4118 41.3845 21.4118 41.5146C21.4118 43.095 20.6536 44.5536 19.7152 45.4782L19.292 45.8952L18.8685 45.4782C17.9301 44.5536 17.1719 43.095 17.1719 41.5146C17.1719 41.3845 17.1863 41.2396 17.2116 41.0858C16.7759 41.4668 16.2868 41.853 15.7697 42.19C14.4261 43.0658 12.8966 43.5749 11.5767 43.0516L10.8655 42.7694L11.3056 42.1435C12.2387 40.8161 12.454 39.4581 12.4584 38.503L9.5731 41.9002L9.11905 41.2988C9.11905 41.2988 5.79638 36.9919 9.29172 29.9422C11.1163 26.2625 11.205 23.1886 11.1549 22.0087H10.5724L10.8452 18.6938C6.82487 16.9331 4.54321 13.8815 4.54321 10.4569C4.54321 6.95184 7.2881 3.82588 11.4983 2.08998C11.0484 2.60867 10.5785 3.29287 10.1542 4.07771C9.60313 5.09715 9.23638 6.088 9.09375 6.8521C9.01506 7.17864 8.97418 7.51388 8.97418 7.85605C8.97418 10.0583 10.655 11.9688 13.1627 13.156C14.0116 12.0579 15.959 10.0782 19.2917 10.0782H19.292C22.6247 10.0782 24.5721 12.0579 25.421 13.156C27.9287 11.9688 29.6095 10.0583 29.6095 7.85605C29.6095 7.64429 29.5939 7.4352 29.5631 7.22886C29.476 6.42847 29.0818 5.28469 28.4425 4.10207C28.0121 3.30574 27.5353 2.61201 27.0801 2.08789ZM19.0342 39.3322C18.8129 39.8268 18.3789 40.8787 18.3789 41.5146C18.3789 42.5044 18.7623 43.4314 19.2917 44.1335C19.8214 43.4314 20.2048 42.5044 20.2048 41.5146C20.2048 40.8806 19.7733 39.833 19.5517 39.3369C19.3501 39.3352 19.1769 39.3339 19.0342 39.3322ZM20.5999 26.4525L20.6903 26.6082C21.2052 27.4968 21.5645 30.0223 21.5645 31.137C21.5645 31.4623 21.5364 31.7832 21.4838 32.0965C21.5406 32.5962 21.5645 32.9905 21.5645 33.5118C21.5645 35.3836 21.1666 37.1542 20.583 38.5926C20.9767 39.0464 22.12 40.297 23.473 41.179C24.2243 41.6686 25.0398 42.0668 25.8153 42.0679C24.3872 39.4139 25.0974 36.8848 25.0974 36.8848L25.401 35.786L28.8866 39.8897C29.5328 38.5284 30.549 35.1946 28.2107 30.4783C26.66 27.3508 26.2813 24.6244 26.2212 22.9775C25.679 23.4983 24.9936 23.987 24.4039 24.31C25.8673 26.0076 26.2134 27.6253 26.4865 30.6051C26.6008 31.8538 27.1346 34.0432 28.1003 35.2357L28.4039 35.6108L27.6537 36.2183L27.3498 35.8432C26.2741 34.5144 25.6523 32.0846 25.525 30.6932C25.2522 27.7159 24.9447 26.2144 23.2575 24.4896L22.7314 23.952L23.4393 23.6977C24.0385 23.4825 24.9803 22.8599 25.6351 22.2014C25.8414 21.9941 26.0185 21.7839 26.1414 21.5806C26.2107 21.4663 26.266 21.3593 26.2824 21.2585L26.2849 21.2422C26.2868 21.2244 26.2879 21.2068 26.2874 21.1893L26.2824 21.0083L24.3747 19.2838L21.0695 19.7199L20.5468 19.1973L19.292 20.4522L18.6441 19.8045C18.7687 20.0424 18.8352 20.2986 18.8352 20.564C18.8352 21.0606 18.6027 21.5254 18.1901 21.8977C17.6426 22.3914 16.7634 22.7235 15.7677 22.7235C14.772 22.7235 13.8929 22.3914 13.3454 21.8977C12.9556 21.5459 12.7264 21.1115 12.7025 20.6457L12.3013 21.0083L12.2963 21.1893C12.2957 21.2068 12.2969 21.2244 12.2988 21.2422L12.3013 21.2585C12.3177 21.3593 12.373 21.4663 12.4423 21.5806C12.5652 21.7839 12.7423 21.9941 12.9486 22.2014C13.6034 22.8599 14.5452 23.4825 15.1443 23.6977L15.8523 23.952L15.3262 24.4896C13.639 26.2144 13.3315 27.7159 13.0587 30.6932C12.9311 32.0846 12.3096 34.5144 11.2339 35.8432L10.93 36.2183L10.1798 35.6108L10.4834 35.2357C11.4491 34.0432 11.9829 31.8538 12.0972 30.6051C12.3703 27.6253 12.7164 26.0076 14.1798 24.31C13.5901 23.987 12.9044 23.4983 12.3625 22.9775C12.3024 24.6244 11.9237 27.3508 10.373 30.4783C8.03466 35.1946 9.05093 38.5284 9.69711 39.8897L13.1827 35.786L13.4863 36.8848C13.4863 36.8848 14.1965 39.4139 12.7684 42.0679C13.5439 42.0668 14.3594 41.6686 15.1107 41.179C16.4637 40.297 17.6067 39.0464 18.0007 38.5926C17.4171 37.1545 17.0192 35.3836 17.0192 33.5118C17.0192 32.9905 17.0434 32.5873 17.0999 32.0954C17.0473 31.7823 17.0192 31.462 17.0192 31.137C17.0192 30.0223 17.3785 27.4968 17.8934 26.6082L17.9838 26.4525C18.2212 26.5645 18.5679 26.651 18.9664 26.6824L18.7287 27.0925C18.2693 27.8847 17.9846 30.1433 17.9846 31.137C17.9846 32.4686 18.5468 33.7084 19.292 34.5965C20.0369 33.7084 20.5991 32.4686 20.5991 31.137C20.5991 30.1433 20.3144 27.8847 19.855 27.0925L19.6173 26.6824C20.0157 26.651 20.3625 26.5645 20.5999 26.4525ZM18.023 34.488C18.135 35.92 18.484 37.2563 18.9517 38.366C19.1215 38.3679 19.3493 38.3699 19.6295 38.3718C20.0986 37.2607 20.4484 35.9225 20.5607 34.488C20.2849 34.9265 19.9679 35.3194 19.6306 35.6517L19.292 35.9853L18.953 35.6517C18.6158 35.3194 18.2988 34.9265 18.023 34.488ZM15.0342 34.2281C15.5047 33.162 15.6782 31.1125 15.7627 29.9959C15.8712 28.562 16.1954 27.467 16.6731 26.7188C17.2928 25.7476 18.1817 25.4214 19.1132 25.7926L19.292 25.8638L19.4705 25.7926C20.402 25.4214 21.2909 25.7476 21.9106 26.7188C22.3883 27.467 22.7125 28.562 22.821 29.9959C22.9055 31.1125 23.079 33.162 23.5495 34.2281L23.7444 34.6699L24.6277 34.2801L24.4328 33.8385C23.9979 32.8531 23.8617 30.9549 23.7836 29.923C23.4672 25.7406 21.3854 24.1278 19.2917 24.8303C17.1983 24.1278 15.1165 25.7406 14.8001 29.923C14.722 30.9549 14.5857 32.8531 14.1509 33.8385L13.956 34.2801L14.8393 34.6699L15.0342 34.2281ZM17.8044 23.5067L19.292 24.2266L20.7793 23.5067L20.4637 22.855L19.292 23.4222L18.12 22.855L17.8044 23.5067ZM17.9624 20.9608H17.0184C16.9653 21.2792 16.851 21.5748 16.6964 21.83C17.0876 21.7225 17.4246 21.5479 17.6726 21.3242C17.7947 21.214 17.8942 21.0921 17.9624 20.9608ZM14.5171 20.9608H13.5731C13.6412 21.0921 13.7405 21.214 13.8628 21.3242C14.1106 21.5479 14.4478 21.7225 14.8391 21.83C14.6845 21.5748 14.5702 21.2792 14.5171 20.9608ZM16.2098 20.9608C16.1339 21.2748 15.9721 21.5485 15.7677 21.7338C15.5634 21.5485 15.4015 21.2748 15.3254 20.9608H16.2098ZM21.9476 20.9856V21.2839H23.3935V20.7953L24.5268 20.646L24.4303 19.9126L21.2144 20.336L21.3109 21.0694L21.9476 20.9856ZM16.2098 20.1671H15.3254C15.4015 19.8531 15.5634 19.5794 15.7677 19.3941C15.9721 19.5794 16.1339 19.8531 16.2098 20.1671ZM17.9624 20.1671C17.8942 20.0357 17.7947 19.9138 17.6726 19.8037C17.4246 19.58 17.0876 19.4054 16.6964 19.2979C16.851 19.5531 16.9653 19.8487 17.0184 20.1671H17.9624ZM14.5171 20.1671C14.5702 19.8487 14.6845 19.5531 14.8391 19.2979C14.4478 19.4054 14.1106 19.58 13.8628 19.8037C13.7405 19.9138 13.6412 20.0357 13.5731 20.1671H14.5171ZM12.0555 18.6999L13.8645 17.4939L18.1334 17.7353L17.1683 18.7005L13.8929 18.2682L11.9465 20.0277L12.0555 18.6999ZM20.4528 17.738L21.4154 18.7005L24.6908 18.2682L26.6372 20.0277L26.5282 18.6999L24.7192 17.494L20.4528 17.738ZM19.292 17.9462L19.29 17.9442L18.7195 18.5146L19.292 19.0869L19.8642 18.5146L19.2937 17.9442L19.292 17.9462ZM12.7659 14.3027C9.71824 12.8952 7.76746 10.5093 7.76746 7.85605C7.76746 6.98985 7.97377 6.15292 8.35775 5.36941C6.727 6.78684 5.74994 8.5398 5.74994 10.4569C5.74994 13.5169 7.91399 16.17 11.5739 17.6929C11.7624 16.4552 12.1765 15.3068 12.7659 14.3027ZM27.0231 17.6874C30.675 16.1636 32.8338 13.5132 32.8338 10.4569C32.8338 8.5398 31.8567 6.78682 30.2259 5.36944C30.6099 6.15292 30.8162 6.98985 30.8162 7.85605C30.8162 10.5063 28.8699 12.8897 25.8286 14.2976C26.4147 15.2946 26.8282 16.4342 27.0192 17.6625L27.0231 17.6874ZM23.9006 13.3333L22.7059 14.5283L22.7078 14.5302L20.4679 16.7701L24.9864 16.5117L25.9354 17.1444C25.5859 15.6573 24.8685 14.3397 23.9006 13.3333ZM14.69 13.3404C13.728 14.3434 13.0142 15.6542 12.665 17.1334L13.5973 16.5118L18.1128 16.7671L15.8759 14.5302L15.8778 14.5283L14.69 13.3404ZM17.2431 14.5283L19.292 16.5769L21.3406 14.5283L19.292 12.4796L17.2431 14.5283ZM16.5604 13.8456L19.1074 11.2986C17.7321 11.3418 16.4606 11.8499 15.404 12.6891L16.5604 13.8456ZM22.0233 13.8456L23.1858 12.683C22.127 11.8446 20.8532 11.3383 19.4758 11.2982L22.0233 13.8456Z" fill="#1B1C23"/>
<path d="M19.2918 13.3088L18.0703 14.5303L19.2918 15.7517L20.5133 14.5303L19.2918 13.3088Z" fill="#E1B600"/>
</svg>
